<?xml version="1.0" encoding="UTF-8" standalone="no"?>
<!-- Generator: Adobe Illustrator 20.0.0, SVG Export Plug-In . SVG Version: 6.00 Build 0)  -->

<svg
   xmlns:dc="http://purl.org/dc/elements/1.1/"
   xmlns:cc="http://creativecommons.org/ns#"
   xmlns:rdf="http://www.w3.org/1999/02/22-rdf-syntax-ns#"
   xmlns:svg="http://www.w3.org/2000/svg"
   xmlns="http://www.w3.org/2000/svg"
   xmlns:sodipodi="http://sodipodi.sourceforge.net/DTD/sodipodi-0.dtd"
   xmlns:inkscape="http://www.inkscape.org/namespaces/inkscape"
   version="1.1"
   id="Layer_1"
   x="0px"
   y="0px"
   viewBox="0 0 537.7 166.2"
   style="enable-background:new 0 0 537.7 166.2;"
   xml:space="preserve"
   inkscape:version="0.92.4 (f8dce91, 2019-08-02)"
   sodipodi:docname="logo_documentation_1.4.svg"
   inkscape:export-filename="/home/edsiper/design/fluentbit/logo_documentation_0.13.png"
   inkscape:export-xdpi="101.24"
   inkscape:export-ydpi="101.24"><metadata
   id="metadata4462"><rdf:RDF><cc:Work
       rdf:about=""><dc:format>image/svg+xml</dc:format><dc:type
         rdf:resource="http://purl.org/dc/dcmitype/StillImage" /><dc:title>Fluentbit logo concept</dc:title></cc:Work></rdf:RDF></metadata><defs
   id="defs4460" /><sodipodi:namedview
   pagecolor="#ffffff"
   bordercolor="#666666"
   borderopacity="1"
   objecttolerance="10"
   gridtolerance="10"
   guidetolerance="10"
   inkscape:pageopacity="0"
   inkscape:pageshadow="2"
   inkscape:window-width="2560"
   inkscape:window-height="1357"
   id="namedview4458"
   showgrid="false"
   inkscape:zoom="1.2311698"
   inkscape:cx="397.97498"
   inkscape:cy="-82.167342"
   inkscape:window-x="0"
   inkscape:window-y="46"
   inkscape:window-maximized="0"
   inkscape:current-layer="Layer_1" /><style
   type="text/css"
   id="style4239">
	.st0{fill:url(#SVGID_1_);}
	.st1{fill:url(#SVGID_2_);}
	.st2{opacity:0.8;fill:url(#SVGID_3_);enable-background:new    ;}
	.st3{opacity:0.8;fill:url(#SVGID_4_);enable-background:new    ;}
	.st4{opacity:0.8;fill:url(#SVGID_5_);enable-background:new    ;}
	.st5{fill:url(#SVGID_6_);}
	.st6{opacity:0.8;fill:url(#SVGID_7_);enable-background:new    ;}
	.st7{opacity:0.8;fill:url(#SVGID_8_);enable-background:new    ;}
	.st8{opacity:0.3;fill:url(#SVGID_9_);enable-background:new    ;}
	.st9{opacity:0.3;fill:url(#SVGID_10_);enable-background:new    ;}
	.st10{opacity:0.3;fill:url(#SVGID_11_);enable-background:new    ;}
	.st11{opacity:0.3;fill:url(#SVGID_12_);enable-background:new    ;}
	.st12{fill:url(#SVGID_13_);}
	.st13{opacity:0.3;fill:url(#SVGID_14_);enable-background:new    ;}
	.st14{opacity:0.8;fill:url(#SVGID_15_);enable-background:new    ;}
	.st15{fill:url(#SVGID_16_);}
	.st16{fill:url(#SVGID_17_);}
	.st17{fill:#FFFFFF;}
	.st18{fill:#181C1D;}
	.st19{fill:#30B99E;}
</style><title
   id="title4241">Fluentbit logo concept</title><rect
   style="opacity:1;fill:#ffffff;fill-opacity:1;stroke:none;stroke-width:0.2;stroke-linejoin:miter;stroke-miterlimit:4;stroke-dasharray:none;stroke-dashoffset:0;stroke-opacity:1"
   id="rect4468"
   width="758.62811"
   height="242.04623"
   x="-14.978851"
   y="-31.985506"
   inkscape:export-xdpi="101.24"
   inkscape:export-ydpi="101.24" /><g
   id="g4243"
   style="opacity:1"
   inkscape:export-xdpi="101.24"
   inkscape:export-ydpi="101.24"><g
     id="g4245"><linearGradient
       id="SVGID_1_"
       gradientUnits="userSpaceOnUse"
       x1="164.65829"
       y1="112.1191"
       x2="-11.7253"
       y2="47.9207"
       gradientTransform="matrix(0.9642,0.2653,0.2653,-0.9642,12.1812,144.7119)"><stop
         offset="0.2986"
         style="stop-color:#0097CE"
         id="stop4248" /><stop
         offset="0.3791"
         style="stop-color:#0999C5"
         id="stop4250" /><stop
         offset="0.5119"
         style="stop-color:#229DAD"
         id="stop4252" /><stop
         offset="0.6469"
         style="stop-color:#42A38F"
         id="stop4254" /><stop
         offset="0.7352"
         style="stop-color:#5DAD82"
         id="stop4256" /><stop
         offset="0.9239"
         style="stop-color:#A1C661"
         id="stop4258" /><stop
         offset="1"
         style="stop-color:#BED153"
         id="stop4260" /></linearGradient><path
       class="st0"
       d="m 196.8,37.7 c -4.3,-0.6 -13.8,-0.8 -32.6,3.1 -2.3,0.5 -4.5,0.8 -6.8,0.7 -2.4,-0.2 -5,-0.9 -7.3,-1.6 -10.3,-3.5 -18.8,-2.4 -23.8,0.2 v 0 c -2.8,1.5 -5,3.4 -7.4,6.6 -3.1,4.2 -9.6,17 -18.5,20.4 v 0 c -5,3.2 -10.4,6.5 -15.1,11.2 -3,3.1 -3.8,10.4 -11.7,17.5 v 0 0 0 C 64.8,108.6 54.7,117.9 44.4,124.7 29.5,135.1 17,138.3 17,138.3 c 0,0 33.1,9.1 69.4,-7.9 27.6,-13 41.9,-38.3 45.2,-43.9 l 18,-30.6 c 1.6,-2.8 4.5,-6.4 7.2,-7.8 0.9,-0.5 1.7,-0.8 1.9,-1 2,-1 4.1,-1.8 6.2,-2.6 12.6,-4.5 25.7,-4.9 31.8,-5.6 0.8,-0.2 0.7,-1.1 0.1,-1.2 z"
       id="path4262"
       style="fill:url(#SVGID_1_)"
       inkscape:connector-curvature="0" /><linearGradient
       id="SVGID_2_"
       gradientUnits="userSpaceOnUse"
       x1="-37.624802"
       y1="106.9508"
       x2="150.2525"
       y2="106.9508"
       gradientTransform="matrix(0.9642,0.2653,0.2653,-0.9642,12.1812,144.7119)"><stop
         offset="8.199139e-02"
         style="stop-color:#3D65AF"
         id="stop4265" /><stop
         offset="0.2305"
         style="stop-color:#2372B8"
         id="stop4267" /><stop
         offset="0.5058"
         style="stop-color:#00B8BB"
         id="stop4269" /></linearGradient><path
       class="st1"
       d="m 196.8,37.7 c -4.3,-0.6 -13.8,-0.8 -32.6,3.1 -2.3,0.5 -4.5,0.8 -6.8,0.7 -2.4,-0.2 -5,-0.9 -7.3,-1.6 -10.6,-3.5 -18.7,-2.6 -23.8,0.2 -2.8,1.5 -5,3.4 -7.4,6.6 -3.1,4.2 -9.6,17 -18.5,20.4 v 0 C 90.4,57.7 81.6,49.8 73.1,42.8 68.3,39 63.6,35.4 59.6,32.8 49.4,25.8 39.1,19.5 28.8,14.6 c -4.6,-2.1 -9.4,-4 -14.7,-6 -2.3,-0.7 -3.6,0.4 -4,2.2 -0.2,0.6 -0.4,2.2 0.6,5 2.3,6.2 5.7,13.3 9.8,20.5 v 0 c 1.5,2.7 3.2,5.5 5,8.3 8.3,13 18.7,26.1 29.3,36.4 2.3,2.2 4.5,4.2 6.9,6.1 3,2.5 6.1,4.8 9,6.7 0.3,0.2 1.8,1.1 2.8,1.7 2,1.1 4.7,2.4 6.4,3.1 8.4,3.7 15.7,4.8 22.1,4.7 11.1,0.3 20.1,-3.2 24.5,-9.1 1.8,-2.5 3.6,-5.1 5.1,-7.8 l 18,-30.6 c 1.6,-2.8 4.5,-6.4 7.2,-7.8 0.9,-0.5 1.7,-0.8 1.9,-1 1.9,-0.9 1.9,-0.6 3.9,-1.4 12.8,-4.5 28.1,-6.1 34.2,-6.8 0.7,-0.1 0.6,-1 0,-1.1 z"
       id="path4271"
       style="fill:url(#SVGID_2_)"
       inkscape:connector-curvature="0" /><linearGradient
       id="SVGID_3_"
       gradientUnits="userSpaceOnUse"
       x1="-37.613899"
       y1="127.8167"
       x2="64.3964"
       y2="127.8167"
       gradientTransform="matrix(0.9642,0.2653,0.2653,-0.9642,12.1812,144.7119)"><stop
         offset="0.1297"
         style="stop-color:#000000"
         id="stop4274" /><stop
         offset="0.3277"
         style="stop-color:#00334B"
         id="stop4276" /><stop
         offset="0.5276"
         style="stop-color:#006190"
         id="stop4278" /><stop
         offset="0.6723"
         style="stop-color:#007FBB"
         id="stop4280" /><stop
         offset="0.7457"
         style="stop-color:#008ACC"
         id="stop4282" /></linearGradient><path
       class="st2"
       d="m 9.9,11.9 c 0,-0.3 0.1,-0.6 0,-0.8 0.1,0.2 0.1,0.5 0,0.8 z"
       id="path4284"
       style="opacity:0.8;fill:url(#SVGID_3_);enable-background:new"
       inkscape:connector-curvature="0" /><linearGradient
       id="SVGID_4_"
       gradientUnits="userSpaceOnUse"
       x1="-37.613899"
       y1="131.4579"
       x2="64.3964"
       y2="131.4579"
       gradientTransform="matrix(0.9642,0.2653,0.2653,-0.9642,12.1812,144.7119)"><stop
         offset="0.1297"
         style="stop-color:#000000"
         id="stop4287" /><stop
         offset="0.3277"
         style="stop-color:#00334B"
         id="stop4289" /><stop
         offset="0.5276"
         style="stop-color:#006190"
         id="stop4291" /><stop
         offset="0.6723"
         style="stop-color:#007FBB"
         id="stop4293" /><stop
         offset="0.7457"
         style="stop-color:#008ACC"
         id="stop4295" /></linearGradient><path
       class="st3"
       d="m 18.3,10 v 0 C 18.1,9.9 18,9.9 17.8,9.9 c 0.3,0.1 0.6,0.3 0.9,0.4 0,-0.1 -0.2,-0.2 -0.4,-0.3 z"
       id="path4297"
       style="opacity:0.8;fill:url(#SVGID_4_);enable-background:new"
       inkscape:connector-curvature="0" /><linearGradient
       id="SVGID_5_"
       gradientUnits="userSpaceOnUse"
       x1="-37.613899"
       y1="131.0589"
       x2="64.3964"
       y2="131.0589"
       gradientTransform="matrix(0.9642,0.2653,0.2653,-0.9642,12.1812,144.7119)"><stop
         offset="0.1297"
         style="stop-color:#000000"
         id="stop4300" /><stop
         offset="0.3277"
         style="stop-color:#00334B"
         id="stop4302" /><stop
         offset="0.5276"
         style="stop-color:#006190"
         id="stop4304" /><stop
         offset="0.6723"
         style="stop-color:#007FBB"
         id="stop4306" /><stop
         offset="0.7457"
         style="stop-color:#008ACC"
         id="stop4308" /></linearGradient><path
       class="st4"
       d="m 21.4,11.3 c -0.1,0 -0.3,-0.1 -0.4,-0.1 0.3,0.1 0.6,0.3 0.8,0.3 -0.2,-0.1 -0.3,-0.2 -0.4,-0.2 z"
       id="path4310"
       style="opacity:0.8;fill:url(#SVGID_5_);enable-background:new"
       inkscape:connector-curvature="0" /><linearGradient
       id="SVGID_6_"
       gradientUnits="userSpaceOnUse"
       x1="-22.3552"
       y1="110.8081"
       x2="64.334198"
       y2="110.8081"
       gradientTransform="matrix(0.9642,0.2653,0.2653,-0.9642,12.1812,144.7119)"><stop
         offset="0.1297"
         style="stop-color:#2483C5"
         id="stop4313" /><stop
         offset="0.1672"
         style="stop-color:#2486C7"
         id="stop4315" /><stop
         offset="0.676"
         style="stop-color:#29B1DF"
         id="stop4317" /><stop
         offset="0.9352"
         style="stop-color:#2BC2E8"
         id="stop4319" /></linearGradient><path
       class="st5"
       d="m 80.1,68.9 c 7.1,0.9 14,0.4 20.2,-2 v 0 c -6,-5.6 -11.7,-10.7 -17,-15.3 v 0 C 80.6,49.3 78,47 75.5,44.9 75.4,44.8 75.2,44.7 75.2,44.6 74.5,44 73.9,43.5 73.3,43 73.1,42.9 73,42.7 72.9,42.7 68.1,38.9 63.4,35.4 59.6,32.7 49.4,25.8 39.2,19.4 28.9,14.5 28,14 27.1,13.7 26.1,13.2 c -0.3,-0.1 -0.6,-0.3 -0.8,-0.3 39.8,21.5 52.5,41 54.8,56 z"
       id="path4321"
       style="fill:url(#SVGID_6_)"
       inkscape:connector-curvature="0" /><linearGradient
       id="SVGID_7_"
       gradientUnits="userSpaceOnUse"
       x1="-37.613899"
       y1="123.0783"
       x2="64.3964"
       y2="123.0783"
       gradientTransform="matrix(0.9642,0.2653,0.2653,-0.9642,12.1812,144.7119)"><stop
         offset="0.1297"
         style="stop-color:#000000"
         id="stop4324" /><stop
         offset="0.3277"
         style="stop-color:#00334B"
         id="stop4326" /><stop
         offset="0.5276"
         style="stop-color:#006190"
         id="stop4328" /><stop
         offset="0.6723"
         style="stop-color:#007FBB"
         id="stop4330" /><stop
         offset="0.7457"
         style="stop-color:#008ACC"
         id="stop4332" /></linearGradient><path
       class="st6"
       d="m 11.4,17.7 v 0 c -0.3,-0.6 -0.5,-1.3 -0.8,-2 0.3,0.6 0.5,1.3 0.8,2 z"
       id="path4334"
       style="opacity:0.8;fill:url(#SVGID_7_);enable-background:new"
       inkscape:connector-curvature="0" /><linearGradient
       id="SVGID_8_"
       gradientUnits="userSpaceOnUse"
       x1="-37.318802"
       y1="127.2182"
       x2="-37.318802"
       y2="127.2182"
       gradientTransform="matrix(0.9642,0.2653,0.2653,-0.9642,12.1812,144.7119)"><stop
         offset="0.1297"
         style="stop-color:#000000"
         id="stop4337" /><stop
         offset="0.3277"
         style="stop-color:#00334B"
         id="stop4339" /><stop
         offset="0.5276"
         style="stop-color:#006190"
         id="stop4341" /><stop
         offset="0.6723"
         style="stop-color:#007FBB"
         id="stop4343" /><stop
         offset="0.7457"
         style="stop-color:#008ACC"
         id="stop4345" /></linearGradient><path
       class="st7"
       d="M 9.9,12.2 Z"
       id="path4347"
       style="opacity:0.8;fill:url(#SVGID_8_);enable-background:new"
       inkscape:connector-curvature="0" /><linearGradient
       id="SVGID_9_"
       gradientUnits="userSpaceOnUse"
       x1="-37.318802"
       y1="127.318"
       x2="-37.318802"
       y2="127.318"
       gradientTransform="matrix(0.9642,0.2653,0.2653,-0.9642,12.1812,144.7119)"><stop
         offset="0"
         style="stop-color:#682C90"
         id="stop4350" /><stop
         offset="0.496"
         style="stop-color:#817CB9"
         id="stop4352" /><stop
         offset="1"
         style="stop-color:#FFFFFF"
         id="stop4354" /></linearGradient><path
       class="st8"
       d="m 9.9,12.2 c 0,-0.1 0,-0.1 0.1,-0.2 0,0.1 0,0.1 -0.1,0.2 z"
       id="path4356"
       style="opacity:0.3;fill:url(#SVGID_9_);enable-background:new"
       inkscape:connector-curvature="0" /><linearGradient
       id="SVGID_10_"
       gradientUnits="userSpaceOnUse"
       x1="49.150799"
       y1="131.70731"
       x2="-2.5184"
       y2="131.70731"
       gradientTransform="matrix(0.9642,0.2653,0.2653,-0.9642,12.1812,144.7119)"><stop
         offset="0"
         style="stop-color:#682C90"
         id="stop4359" /><stop
         offset="0.496"
         style="stop-color:#817CB9"
         id="stop4361" /><stop
         offset="1"
         style="stop-color:#FFFFFF"
         id="stop4363" /></linearGradient><path
       class="st9"
       d="M 14.2,8.5 C 15.5,9 16.7,9.4 17.9,9.9 16.6,9.4 15.4,8.9 14.2,8.5 Z"
       id="path4365"
       style="opacity:0.3;fill:url(#SVGID_10_);enable-background:new"
       inkscape:connector-curvature="0" /><linearGradient
       id="SVGID_11_"
       gradientUnits="userSpaceOnUse"
       x1="49.150799"
       y1="125.6221"
       x2="-2.5184"
       y2="125.6221"
       gradientTransform="matrix(0.9642,0.2653,0.2653,-0.9642,12.1812,144.7119)"><stop
         offset="0"
         style="stop-color:#682C90"
         id="stop4368" /><stop
         offset="0.496"
         style="stop-color:#817CB9"
         id="stop4370" /><stop
         offset="1"
         style="stop-color:#FFFFFF"
         id="stop4372" /></linearGradient><path
       class="st10"
       d="m 9.9,12.2 c 0,0.8 0.2,2 0.7,3.5 v 0 0 C 10.1,14.2 9.9,13 9.9,12.2 Z"
       id="path4374"
       style="opacity:0.3;fill:url(#SVGID_11_);enable-background:new"
       inkscape:connector-curvature="0" /><linearGradient
       id="SVGID_12_"
       gradientUnits="userSpaceOnUse"
       x1="49.150799"
       y1="130.7596"
       x2="-2.5184"
       y2="130.7596"
       gradientTransform="matrix(0.9642,0.2653,0.2653,-0.9642,12.1812,144.7119)"><stop
         offset="0"
         style="stop-color:#682C90"
         id="stop4377" /><stop
         offset="0.496"
         style="stop-color:#817CB9"
         id="stop4379" /><stop
         offset="1"
         style="stop-color:#FFFFFF"
         id="stop4381" /></linearGradient><path
       class="st11"
       d="m 24.7,12.7 c 0.2,0.1 0.4,0.2 0.6,0.3 v 0 c -1.1,-0.5 -2.3,-1 -3.5,-1.5 0.4,0.2 0.7,0.3 1.1,0.5 0.6,0.2 1.2,0.4 1.8,0.7 z"
       id="path4383"
       style="opacity:0.3;fill:url(#SVGID_12_);enable-background:new"
       inkscape:connector-curvature="0" /><linearGradient
       id="SVGID_13_"
       gradientUnits="userSpaceOnUse"
       x1="-34.4258"
       y1="92.901604"
       x2="48.366901"
       y2="92.901604"
       gradientTransform="matrix(0.9642,0.2653,0.2653,-0.9642,12.1812,144.7119)"><stop
         offset="0.1297"
         style="stop-color:#3B67AD"
         id="stop4386" /><stop
         offset="0.5697"
         style="stop-color:#227CAA"
         id="stop4388" /><stop
         offset="0.9352"
         style="stop-color:#118AA8"
         id="stop4390" /></linearGradient><path
       class="st12"
       d="M 36.5,47.9 C 25.8,39.3 15.7,27.3 11.4,17.8 c 10,25.3 36,61.2 59.2,76 0.4,0.3 1.8,1.1 2.9,1.7 3,-4.6 8.5,-14.1 6.6,-26.6 C 65.8,67 50.4,59.2 36.5,47.9 Z"
       id="path4392"
       style="fill:url(#SVGID_13_)"
       inkscape:connector-curvature="0" /><linearGradient
       id="SVGID_14_"
       gradientUnits="userSpaceOnUse"
       x1="49.150799"
       y1="131.25841"
       x2="-2.5184"
       y2="131.25841"
       gradientTransform="matrix(0.9642,0.2653,0.2653,-0.9642,12.1812,144.7119)"><stop
         offset="0"
         style="stop-color:#682C90"
         id="stop4395" /><stop
         offset="0.496"
         style="stop-color:#817CB9"
         id="stop4397" /><stop
         offset="1"
         style="stop-color:#FFFFFF"
         id="stop4399" /></linearGradient><path
       class="st13"
       d="m 21,11.2 c -0.7,-0.3 -1.4,-0.6 -2.1,-0.9 0.1,0 0.2,0.1 0.3,0.1 0.5,0.2 1.1,0.5 1.8,0.8 z"
       id="path4401"
       style="opacity:0.3;fill:url(#SVGID_14_);enable-background:new"
       inkscape:connector-curvature="0" /><linearGradient
       id="SVGID_15_"
       gradientUnits="userSpaceOnUse"
       x1="-37.618099"
       y1="111.2764"
       x2="64.392197"
       y2="111.2764"
       gradientTransform="matrix(0.9642,0.2653,0.2653,-0.9642,12.1812,144.7119)"><stop
         offset="0.1297"
         style="stop-color:#000000"
         id="stop4404" /><stop
         offset="0.3277"
         style="stop-color:#00334B"
         id="stop4406" /><stop
         offset="0.5276"
         style="stop-color:#006190"
         id="stop4408" /><stop
         offset="0.6723"
         style="stop-color:#007FBB"
         id="stop4410" /><stop
         offset="0.7457"
         style="stop-color:#008ACC"
         id="stop4412" /></linearGradient><path
       class="st14"
       d="M 36.5,47.9 C 50.4,59.2 65.8,66.9 80.1,68.8 77.8,53.9 65.1,34.3 25.3,13 25.1,12.9 24.8,12.8 24.7,12.7 24.1,12.4 23.5,12.2 23,11.9 22.6,11.7 22.3,11.6 21.9,11.4 21.6,11.3 21.3,11.1 21.1,11.1 20.5,10.8 19.9,10.6 19.2,10.4 19.1,10.4 19,10.3 18.9,10.3 18.6,10.2 18.3,10 18,9.9 16.8,9.5 15.6,8.9 14.3,8.5 12,7.8 10.7,8.9 10.2,10.6 c 0,0.1 -0.1,0.3 -0.1,0.6 -0.1,0.2 0,0.5 0,0.8 0,0.1 0,0.1 -0.1,0.2 v 0 c 0,0.8 0.2,2 0.7,3.5 v 0 c 0.2,0.7 0.5,1.4 0.8,2.1 4.2,9.5 14.4,21.5 25,30.1 z"
       id="path4414"
       style="opacity:0.8;fill:url(#SVGID_15_);enable-background:new"
       inkscape:connector-curvature="0" /><linearGradient
       id="SVGID_16_"
       gradientUnits="userSpaceOnUse"
       x1="-37.618099"
       y1="111.2764"
       x2="45.380299"
       y2="111.2764"
       gradientTransform="matrix(0.9642,0.2653,0.2653,-0.9642,12.1812,144.7119)"><stop
         offset="0.1297"
         style="stop-color:#3A67B0"
         id="stop4417" /><stop
         offset="0.5622"
         style="stop-color:#357FBD"
         id="stop4419" /><stop
         offset="0.9352"
         style="stop-color:#3290C6"
         id="stop4421" /></linearGradient><path
       class="st15"
       d="M 36.5,47.9 C 50.4,59.2 65.8,66.9 80.1,68.8 77.8,53.9 65.1,34.3 25.3,13 25.1,12.9 24.8,12.8 24.7,12.7 24.1,12.4 23.5,12.2 23,11.9 22.6,11.7 22.3,11.6 21.9,11.4 21.6,11.3 21.3,11.1 21.1,11.1 20.5,10.8 19.9,10.6 19.2,10.4 19.1,10.4 19,10.3 18.9,10.3 18.6,10.2 18.3,10 18,9.9 16.8,9.5 15.6,8.9 14.3,8.5 12,7.8 10.7,8.9 10.2,10.6 c 0,0.1 -0.1,0.3 -0.1,0.6 -0.1,0.2 0,0.5 0,0.8 0,0.1 0,0.1 -0.1,0.2 v 0 c 0,0.8 0.2,2 0.7,3.5 v 0 c 0.2,0.7 0.5,1.4 0.8,2.1 4.2,9.5 14.4,21.5 25,30.1 z"
       id="path4423"
       style="fill:url(#SVGID_16_)"
       inkscape:connector-curvature="0" /><linearGradient
       id="SVGID_17_"
       gradientUnits="userSpaceOnUse"
       x1="64.433998"
       y1="122.901"
       x2="150.27789"
       y2="122.901"
       gradientTransform="matrix(0.9642,0.2653,0.2653,-0.9642,12.1812,144.7119)"><stop
         offset="0.1724"
         style="stop-color:#4E5CA8"
         id="stop4426" /><stop
         offset="0.9937"
         style="stop-color:#1FC3F3"
         id="stop4428" /></linearGradient><path
       class="st16"
       d="m 196.8,37.7 c -4.3,-0.6 -13.8,-0.8 -32.6,3.1 -2.3,0.5 -4.5,0.8 -6.8,0.7 -2.4,-0.2 -5,-0.9 -7.3,-1.6 -6,-2 -11.1,-2.6 -15.2,-2.3 -3.6,0.3 -7,1.4 -9.9,3.4 -2.1,1.4 -4.1,3.1 -6,5.8 -3.1,4.2 -9.6,17 -18.5,20.4 v 0 0 c 7,6.6 17.8,12.1 27.9,8.8 9.7,-3.2 15.7,-11.8 17.6,-14.6 4,-5.9 6.2,-8.1 6.4,-8.4 0.5,-0.5 4.2,-4.8 11.9,-7.4 11.4,-3.8 28.6,-6.1 32.7,-6.5 0.5,-0.4 0.4,-1.3 -0.2,-1.4 z"
       id="path4430"
       style="fill:url(#SVGID_17_)"
       inkscape:connector-curvature="0" /><circle
       transform="matrix(0.2653,-0.9642,0.9642,0.2653,56.6453,171.4881)"
       class="st17"
       cx="140.8"
       cy="48.599998"
       id="ellipse4432"
       style="fill:#ffffff"
       r="3" /></g></g><g
   id="g4434"
   style="opacity:1"
   inkscape:export-xdpi="101.24"
   inkscape:export-ydpi="101.24"><g
     id="g4436"><g
       id="g4438"><path
         class="st18"
         d="m 310.8,107.9 c -12.4,0 -22.5,10.1 -22.5,22.5 v 6.7 c 0,12.4 10.1,22.5 22.5,22.5 h 14.3 v -8.2 h -14.3 c -7.6,0 -13.9,-6 -14.3,-13.5 h 29.3 c 4.1,0 7.4,-3.3 7.4,-7.4 0,-12.5 -10,-22.6 -22.4,-22.6 z m -14.3,21.7 c 0.4,-7.5 6.7,-13.5 14.3,-13.5 7.6,0 13.9,6 14.3,13.5 z"
         id="path4440"
         style="fill:#181c1d"
         inkscape:connector-curvature="0" /><path
         class="st18"
         d="m 190.4,99.7 h 6 v -8.2 h -6 c -4.6,0 -8.9,1.9 -12.1,5.2 -3.1,3.3 -5,7.6 -5,12.2 v 1 h -4.7 -0.1 v 8.2 h 0.1 4.7 v 41.3 h 8.2 v -41.3 h 10.9 0.1 V 110 h -0.1 -10.9 v -1 c 0.1,-5 4.2,-9.3 8.9,-9.3 z"
         id="path4442"
         style="fill:#181c1d"
         inkscape:connector-curvature="0" /><rect
         x="209.2"
         y="91.599998"
         class="st18"
         width="8.1999998"
         height="68"
         id="rect4444"
         style="fill:#181c1d" /><rect
         x="482"
         y="107.9"
         class="st19"
         width="8.1999998"
         height="51.5"
         id="rect4446"
         style="fill:#30b99e" /><path
         class="st18"
         d="m 266.8,138.5 c 0,7 -5.7,12.9 -12.9,12.9 -7,0 -12.9,-5.7 -12.9,-12.9 v -30.6 h -8 v 30.6 c 0,11.5 9.4,21 21,21 11.6,0 21,-9.4 21,-21 v -30.6 h -8.2 z"
         id="path4448"
         style="fill:#181c1d"
         inkscape:connector-curvature="0" /><path
         class="st18"
         d="m 362.4,107.9 c -11.5,0 -21,9.4 -21,21 v 30.6 h 8.2 v -30.6 c 0,-7 5.7,-12.9 12.9,-12.9 7,0 12.9,5.7 12.9,12.9 v 30.6 h 8.2 v -30.6 c -0.2,-11.5 -9.6,-21 -21.2,-21 z"
         id="path4450"
         style="fill:#181c1d"
         inkscape:connector-curvature="0" /><path
         class="st18"
         d="m 406.9,142.1 v -26 h 11 v 0 -8.1 h -11 V 91.6 h -8.1 V 108 h -7.2 v 8.2 h 7.2 v 26 c 0,9.3 7.6,17 17,17 h 3.6 V 151 h -3.6 c -4.9,0 -8.9,-4 -8.9,-8.9 z"
         id="path4452"
         style="fill:#181c1d"
         inkscape:connector-curvature="0" /><path
         class="st19"
         d="m 516.5,142.1 v -26 h 11 v 0 -8.1 h -11 V 91.6 h -8.2 V 108 h -7.2 v 8.2 h 7.2 v 26 c 0,9.3 7.6,17 17,17 h 3.6 V 151 h -3.6 c -4.8,0 -8.8,-4 -8.8,-8.9 z"
         id="path4454"
         style="fill:#30b99e"
         inkscape:connector-curvature="0" /><path
         class="st19"
         d="m 436.6,91.6 v 20.9 c 3.5,-2.8 8,-4.4 12.9,-4.4 11.5,0 21,9.4 21,21 v 3.3 1.2 5 c 0,11.5 -9.4,21 -21,21 -11.6,0 -21,-9.4 -21,-21 v -1.5 -3.5 -1.2 -3.4 -37.4 z m 0,41.9 v 3.5 1.5 c 0,7 5.7,12.9 12.9,12.9 7,0 12.9,-5.7 12.9,-12.9 v -5 -1.2 -3.3 c 0,-7 -5.7,-12.9 -12.9,-12.9 -7,0 -12.9,5.7 -12.9,12.9 v 3.3 z"
         id="path4456"
         style="fill:#30b99e"
         inkscape:connector-curvature="0" /></g></g></g><text
   xml:space="preserve"
   style="font-style:normal;font-variant:normal;font-weight:normal;font-stretch:normal;font-size:12.71009541px;line-height:0%;font-family:'Bitstream Vera Sans';-inkscape-font-specification:'Bitstream Vera Sans, Normal';text-align:start;letter-spacing:0px;word-spacing:0px;writing-mode:lr-tb;text-anchor:start;opacity:1;fill:#007cca;fill-opacity:1;stroke:none;stroke-width:1.05917466px;stroke-linecap:butt;stroke-linejoin:miter;stroke-opacity:1"
   x="167.84027"
   y="199.79671"
   id="text4464"
   inkscape:export-xdpi="101.24"
   inkscape:export-ydpi="101.24"><tspan
     sodipodi:role="line"
     id="tspan4466"
     x="167.84027"
     y="199.79671"
     style="font-size:35.62734222px;line-height:1.25;fill:#007cca;fill-opacity:1;stroke-width:1.05917466px">v1.4 Documentation</tspan></text>






</svg>